<svg width="349" height="46" viewBox="0 0 349 46" fill="none" xmlns="http://www.w3.org/2000/svg">
<g clip-path="url(#clip0_2052_220)">
<rect width="46" height="46" rx="13.1429" fill="url(#paint0_radial_2052_220)"/>
<g filter="url(#filter0_dddd_2052_220)">
<path d="M37.6548 25.0381L20.4307 35.3121L20.4307 14.7764L37.6548 25.0381Z" fill="url(#paint1_linear_2052_220)"/>
<path d="M8.34521 21.4351L23.9524 10.6879L23.9524 31.2236L8.34521 21.4351Z" fill="url(#paint2_radial_2052_220)"/>
<path d="M8.34521 21.4351L23.9524 10.6879L23.9524 31.2236L8.34521 21.4351Z" fill="black" fill-opacity="0.2"/>
<path d="M23.9456 31.2053L20.4307 35.3123L20.4307 29.0215L23.9456 31.2053Z" fill="url(#paint3_linear_2052_220)"/>
</g>
</g>
<path d="M59.952 34.5V11.78H65.456V19.236C65.9253 18.4467 66.5653 17.86 67.376 17.476C68.1867 17.092 69.0827 16.9 70.064 16.9C72.0053 16.9 73.4667 17.508 74.448 18.724C75.4293 19.94 75.92 21.508 75.92 23.428V34.5H70.416V24.676C70.416 23.5453 70.2453 22.6813 69.904 22.084C69.5627 21.4867 68.976 21.188 68.144 21.188C67.2907 21.188 66.6293 21.4973 66.16 22.116C65.6907 22.7347 65.456 23.6413 65.456 24.836V34.5H59.952ZM87.4855 34.884C85.6935 34.884 84.1255 34.5107 82.7815 33.764C81.4375 33.0173 80.3922 31.972 79.6455 30.628C78.8988 29.284 78.5255 27.7053 78.5255 25.892C78.5255 24.1 78.8988 22.532 79.6455 21.188C80.3922 19.8227 81.4268 18.7667 82.7495 18.02C84.0935 17.2733 85.6615 16.9 87.4535 16.9C89.2455 16.9 90.7922 17.284 92.0935 18.052C93.3948 18.7987 94.3975 19.876 95.1015 21.284C95.8268 22.692 96.1895 24.3667 96.1895 26.308V27.332H84.2215C84.2642 28.5267 84.5842 29.4227 85.1815 30.02C85.8002 30.596 86.6002 30.884 87.5815 30.884C88.3068 30.884 88.9148 30.7453 89.4055 30.468C89.8962 30.1693 90.2482 29.6893 90.4615 29.028L95.9655 29.348C95.4748 31.14 94.4722 32.516 92.9575 33.476C91.4642 34.4147 89.6402 34.884 87.4855 34.884ZM84.2215 24.196H90.6215C90.5788 23.0653 90.2695 22.2227 89.6935 21.668C89.1175 21.092 88.3708 20.804 87.4535 20.804C86.5575 20.804 85.8215 21.1027 85.2455 21.7C84.6695 22.2973 84.3282 23.1293 84.2215 24.196ZM96.5338 34.5L102.614 25.796L96.6618 17.284H102.422L105.814 22.5L109.142 17.284H114.998L109.046 25.796L115.126 34.5H109.366L105.91 29.028L102.422 34.5H96.5338ZM115.932 27.364V22.948H127.068V27.364H115.932ZM130.14 34.5V17.284H135.42L135.548 20.804C135.889 19.5667 136.39 18.6707 137.052 18.116C137.734 17.5613 138.598 17.284 139.644 17.284H141.148V21.732H139.612C138.246 21.732 137.244 21.9773 136.604 22.468C135.964 22.9587 135.644 23.8227 135.644 25.06V34.5H130.14ZM148.482 34.884C146.669 34.884 145.186 34.4787 144.034 33.668C142.903 32.836 142.338 31.6733 142.338 30.18C142.338 28.6653 142.829 27.492 143.81 26.66C144.791 25.828 146.221 25.22 148.098 24.836L153.442 23.748C153.442 21.7 152.599 20.676 150.914 20.676C149.314 20.676 148.386 21.4333 148.13 22.948L142.626 22.756C142.967 20.772 143.853 19.3 145.282 18.34C146.711 17.38 148.589 16.9 150.914 16.9C156.269 16.9 158.946 19.3213 158.946 24.164V29.604C158.946 30.1373 159.031 30.4893 159.202 30.66C159.394 30.8307 159.65 30.916 159.97 30.916H160.386V34.5C160.215 34.564 159.938 34.6173 159.554 34.66C159.17 34.7027 158.797 34.724 158.434 34.724C157.879 34.724 157.325 34.6493 156.77 34.5C156.215 34.3293 155.735 34.0413 155.33 33.636C154.925 33.2093 154.647 32.6227 154.498 31.876C154.05 32.7933 153.325 33.5293 152.322 34.084C151.319 34.6173 150.039 34.884 148.482 34.884ZM149.922 31.3C150.946 31.3 151.789 30.9907 152.45 30.372C153.111 29.7533 153.442 28.8573 153.442 27.684V26.98L150.114 27.748C148.706 28.0467 148.002 28.6867 148.002 29.668C148.002 30.756 148.642 31.3 149.922 31.3ZM163.179 39.3V35.332H165.547C166.08 35.332 166.464 35.2467 166.699 35.076C166.955 34.9267 167.168 34.6493 167.339 34.244L167.627 33.476H166.187L160.203 17.284H165.771L169.323 28.292L172.651 17.284H178.187L171.691 35.94C171.264 37.156 170.677 38.02 169.931 38.532C169.184 39.044 168.139 39.3 166.795 39.3H163.179ZM187.57 34.884C184.776 34.884 182.674 34.34 181.266 33.252C179.88 32.164 179.122 30.7773 178.994 29.092L184.562 28.9C184.69 29.668 185 30.244 185.49 30.628C185.981 31.012 186.685 31.204 187.602 31.204C189.16 31.204 189.938 30.7133 189.938 29.732C189.938 29.2413 189.736 28.868 189.33 28.612C188.946 28.3347 188.082 28.0787 186.738 27.844C184.861 27.5453 183.389 27.1827 182.322 26.756C181.256 26.308 180.498 25.7427 180.05 25.06C179.624 24.3773 179.41 23.524 179.41 22.5C179.41 20.8147 180.072 19.46 181.394 18.436C182.738 17.412 184.765 16.9 187.474 16.9C190.013 16.9 191.933 17.4653 193.234 18.596C194.557 19.7053 195.325 21.156 195.538 22.948L190.066 23.14C189.96 22.3293 189.672 21.7 189.202 21.252C188.754 20.804 188.157 20.58 187.41 20.58C186.685 20.58 186.109 20.74 185.682 21.06C185.277 21.3587 185.074 21.7747 185.074 22.308C185.074 22.8627 185.288 23.2787 185.714 23.556C186.141 23.812 186.898 24.0253 187.986 24.196C190.781 24.58 192.744 25.1987 193.874 26.052C195.026 26.884 195.602 28.068 195.602 29.604C195.602 31.3107 194.888 32.6227 193.458 33.54C192.029 34.436 190.066 34.884 187.57 34.884ZM205.03 38.02L214.47 10.5H217.03L207.59 38.02H205.03ZM230.069 34.5V11.78H232.821V34.5H230.069ZM238.069 34.5V11.78H245.109C248.608 11.78 251.296 12.772 253.173 14.756C255.072 16.7187 256.021 19.524 256.021 23.172C256.021 26.7987 255.093 29.5933 253.237 31.556C251.381 33.5187 248.736 34.5 245.301 34.5H238.069ZM240.821 31.812H245.109C250.464 31.812 253.141 28.932 253.141 23.172C253.141 17.3693 250.464 14.468 245.109 14.468H240.821V31.812ZM257.14 34.5L265.332 11.78H269.044L277.236 34.5H274.228L271.956 28.036H262.42L260.148 34.5H257.14ZM263.348 25.348H271.028L267.188 14.18L263.348 25.348ZM296.627 35.012C294.878 35.012 293.352 34.6813 292.051 34.02C290.75 33.3587 289.715 32.452 288.947 31.3C288.2 30.1267 287.763 28.772 287.635 27.236L290.515 27.044C290.75 28.7293 291.379 30.0307 292.403 30.948C293.448 31.8653 294.878 32.324 296.691 32.324C298.27 32.324 299.496 32.0253 300.371 31.428C301.267 30.8093 301.715 29.9133 301.715 28.74C301.715 28.036 301.544 27.4173 301.203 26.884C300.883 26.3293 300.254 25.828 299.315 25.38C298.398 24.9107 297.032 24.452 295.219 24.004C293.47 23.556 292.072 23.0653 291.027 22.532C290.003 21.9987 289.256 21.348 288.787 20.58C288.339 19.812 288.115 18.8627 288.115 17.732C288.115 16.452 288.414 15.332 289.011 14.372C289.63 13.3907 290.504 12.6333 291.635 12.1C292.766 11.5453 294.11 11.268 295.667 11.268C297.331 11.268 298.76 11.588 299.955 12.228C301.15 12.8467 302.099 13.7 302.803 14.788C303.507 15.876 303.944 17.1133 304.115 18.5L301.235 18.692C301.043 17.3053 300.478 16.1747 299.539 15.3C298.622 14.404 297.31 13.956 295.603 13.956C294.195 13.956 293.075 14.2973 292.243 14.98C291.411 15.6413 290.995 16.516 290.995 17.604C290.995 18.308 291.155 18.8947 291.475 19.364C291.816 19.812 292.414 20.2173 293.267 20.58C294.12 20.9213 295.347 21.2947 296.947 21.7C298.846 22.1693 300.35 22.7347 301.459 23.396C302.59 24.036 303.39 24.7827 303.859 25.636C304.35 26.4893 304.595 27.46 304.595 28.548C304.595 29.8707 304.254 31.0227 303.571 32.004C302.888 32.964 301.95 33.7107 300.755 34.244C299.56 34.756 298.184 35.012 296.627 35.012ZM308.85 34.5V11.78H315.89C319.389 11.78 322.077 12.772 323.954 14.756C325.853 16.7187 326.802 19.524 326.802 23.172C326.802 26.7987 325.874 29.5933 324.018 31.556C322.162 33.5187 319.517 34.5 316.082 34.5H308.85ZM311.602 31.812H315.89C321.245 31.812 323.922 28.932 323.922 23.172C323.922 17.3693 321.245 14.468 315.89 14.468H311.602V31.812ZM330.882 34.5V11.78H333.634V23.076L343.842 11.78H347.33L338.434 21.636L347.938 34.5H344.578L336.578 23.684L333.634 26.916V34.5H330.882Z" fill="#F7F7F8"/>
<defs>
<filter id="filter0_dddd_2052_220" x="3.41664" y="9.86607" width="39.1667" height="43.5179" filterUnits="userSpaceOnUse" color-interpolation-filters="sRGB">
<feFlood flood-opacity="0" result="BackgroundImageFix"/>
<feColorMatrix in="SourceAlpha" type="matrix" values="0 0 0 0 0 0 0 0 0 0 0 0 0 0 0 0 0 0 127 0" result="hardAlpha"/>
<feOffset dy="0.821429"/>
<feGaussianBlur stdDeviation="0.821429"/>
<feColorMatrix type="matrix" values="0 0 0 0 0 0 0 0 0 0 0 0 0 0 0 0 0 0 0.1 0"/>
<feBlend mode="normal" in2="BackgroundImageFix" result="effect1_dropShadow_2052_220"/>
<feColorMatrix in="SourceAlpha" type="matrix" values="0 0 0 0 0 0 0 0 0 0 0 0 0 0 0 0 0 0 127 0" result="hardAlpha"/>
<feOffset dy="3.28571"/>
<feGaussianBlur stdDeviation="1.64286"/>
<feColorMatrix type="matrix" values="0 0 0 0 0 0 0 0 0 0 0 0 0 0 0 0 0 0 0.09 0"/>
<feBlend mode="normal" in2="effect1_dropShadow_2052_220" result="effect2_dropShadow_2052_220"/>
<feColorMatrix in="SourceAlpha" type="matrix" values="0 0 0 0 0 0 0 0 0 0 0 0 0 0 0 0 0 0 127 0" result="hardAlpha"/>
<feOffset dy="7.39286"/>
<feGaussianBlur stdDeviation="2.05357"/>
<feColorMatrix type="matrix" values="0 0 0 0 0 0 0 0 0 0 0 0 0 0 0 0 0 0 0.05 0"/>
<feBlend mode="normal" in2="effect2_dropShadow_2052_220" result="effect3_dropShadow_2052_220"/>
<feColorMatrix in="SourceAlpha" type="matrix" values="0 0 0 0 0 0 0 0 0 0 0 0 0 0 0 0 0 0 127 0" result="hardAlpha"/>
<feOffset dy="13.1429"/>
<feGaussianBlur stdDeviation="2.46429"/>
<feColorMatrix type="matrix" values="0 0 0 0 0 0 0 0 0 0 0 0 0 0 0 0 0 0 0.01 0"/>
<feBlend mode="normal" in2="effect3_dropShadow_2052_220" result="effect4_dropShadow_2052_220"/>
<feBlend mode="normal" in="SourceGraphic" in2="effect4_dropShadow_2052_220" result="shape"/>
</filter>
<radialGradient id="paint0_radial_2052_220" cx="0" cy="0" r="1" gradientUnits="userSpaceOnUse" gradientTransform="translate(4.20034 4.79579) rotate(46.625) scale(48.2122 132.903)">
<stop stop-color="white"/>
<stop offset="1" stop-color="#E0E4E8"/>
</radialGradient>
<linearGradient id="paint1_linear_2052_220" x1="37.1668" y1="25.7961" x2="25.3495" y2="21.5036" gradientUnits="userSpaceOnUse">
<stop stop-color="#464646"/>
<stop offset="1" stop-color="#0C0C0C"/>
</linearGradient>
<radialGradient id="paint2_radial_2052_220" cx="0" cy="0" r="1" gradientUnits="userSpaceOnUse" gradientTransform="translate(14.6732 16.4865) rotate(22.0989) scale(9.88118 9.74691)">
<stop stop-color="#464646"/>
<stop offset="1" stop-color="#191919"/>
</radialGradient>
<linearGradient id="paint3_linear_2052_220" x1="23.652" y1="29.3666" x2="20.0557" y2="31.5137" gradientUnits="userSpaceOnUse">
<stop stop-color="#060606"/>
<stop offset="1" stop-color="#464646"/>
</linearGradient>
<clipPath id="clip0_2052_220">
<rect width="46" height="46" rx="13.1429" fill="white"/>
</clipPath>
</defs>
</svg>
