<svg width="440" height="46" viewBox="0 0 440 46" fill="none" xmlns="http://www.w3.org/2000/svg">
<rect width="46" height="46" rx="13.1429" fill="url(#paint0_radial_2052_175)"/>
<path d="M37.6548 25.0381L20.4307 35.3121L20.4307 14.7764L37.6548 25.0381Z" fill="url(#paint1_linear_2052_175)"/>
<path d="M8.34521 21.4351L23.9524 10.6879L23.9524 31.2236L8.34521 21.4351Z" fill="url(#paint2_radial_2052_175)"/>
<path d="M23.9456 31.2053L20.4307 35.3123L20.4307 29.0215L23.9456 31.2053Z" fill="url(#paint3_linear_2052_175)"/>
<path d="M59.952 34.5V11.78H65.456V19.236C65.9253 18.4467 66.5653 17.86 67.376 17.476C68.1867 17.092 69.0827 16.9 70.064 16.9C72.0053 16.9 73.4667 17.508 74.448 18.724C75.4293 19.94 75.92 21.508 75.92 23.428V34.5H70.416V24.676C70.416 23.5453 70.2453 22.6813 69.904 22.084C69.5627 21.4867 68.976 21.188 68.144 21.188C67.2907 21.188 66.6293 21.4973 66.16 22.116C65.6907 22.7347 65.456 23.6413 65.456 24.836V34.5H59.952ZM87.4855 34.884C85.6935 34.884 84.1255 34.5107 82.7815 33.764C81.4375 33.0173 80.3922 31.972 79.6455 30.628C78.8988 29.284 78.5255 27.7053 78.5255 25.892C78.5255 24.1 78.8988 22.532 79.6455 21.188C80.3922 19.8227 81.4268 18.7667 82.7495 18.02C84.0935 17.2733 85.6615 16.9 87.4535 16.9C89.2455 16.9 90.7922 17.284 92.0935 18.052C93.3948 18.7987 94.3975 19.876 95.1015 21.284C95.8268 22.692 96.1895 24.3667 96.1895 26.308V27.332H84.2215C84.2642 28.5267 84.5842 29.4227 85.1815 30.02C85.8002 30.596 86.6002 30.884 87.5815 30.884C88.3068 30.884 88.9148 30.7453 89.4055 30.468C89.8962 30.1693 90.2482 29.6893 90.4615 29.028L95.9655 29.348C95.4748 31.14 94.4722 32.516 92.9575 33.476C91.4642 34.4147 89.6402 34.884 87.4855 34.884ZM84.2215 24.196H90.6215C90.5788 23.0653 90.2695 22.2227 89.6935 21.668C89.1175 21.092 88.3708 20.804 87.4535 20.804C86.5575 20.804 85.8215 21.1027 85.2455 21.7C84.6695 22.2973 84.3282 23.1293 84.2215 24.196ZM96.5338 34.5L102.614 25.796L96.6618 17.284H102.422L105.814 22.5L109.142 17.284H114.998L109.046 25.796L115.126 34.5H109.366L105.91 29.028L102.422 34.5H96.5338ZM115.932 27.364V22.948H127.068V27.364H115.932ZM130.14 34.5V17.284H135.42L135.548 20.804C135.889 19.5667 136.39 18.6707 137.052 18.116C137.734 17.5613 138.598 17.284 139.644 17.284H141.148V21.732H139.612C138.246 21.732 137.244 21.9773 136.604 22.468C135.964 22.9587 135.644 23.8227 135.644 25.06V34.5H130.14ZM148.482 34.884C146.669 34.884 145.186 34.4787 144.034 33.668C142.903 32.836 142.338 31.6733 142.338 30.18C142.338 28.6653 142.829 27.492 143.81 26.66C144.791 25.828 146.221 25.22 148.098 24.836L153.442 23.748C153.442 21.7 152.599 20.676 150.914 20.676C149.314 20.676 148.386 21.4333 148.13 22.948L142.626 22.756C142.967 20.772 143.853 19.3 145.282 18.34C146.711 17.38 148.589 16.9 150.914 16.9C156.269 16.9 158.946 19.3213 158.946 24.164V29.604C158.946 30.1373 159.031 30.4893 159.202 30.66C159.394 30.8307 159.65 30.916 159.97 30.916H160.386V34.5C160.215 34.564 159.938 34.6173 159.554 34.66C159.17 34.7027 158.797 34.724 158.434 34.724C157.879 34.724 157.325 34.6493 156.77 34.5C156.215 34.3293 155.735 34.0413 155.33 33.636C154.925 33.2093 154.647 32.6227 154.498 31.876C154.05 32.7933 153.325 33.5293 152.322 34.084C151.319 34.6173 150.039 34.884 148.482 34.884ZM149.922 31.3C150.946 31.3 151.789 30.9907 152.45 30.372C153.111 29.7533 153.442 28.8573 153.442 27.684V26.98L150.114 27.748C148.706 28.0467 148.002 28.6867 148.002 29.668C148.002 30.756 148.642 31.3 149.922 31.3ZM163.179 39.3V35.332H165.547C166.08 35.332 166.464 35.2467 166.699 35.076C166.955 34.9267 167.168 34.6493 167.339 34.244L167.627 33.476H166.187L160.203 17.284H165.771L169.323 28.292L172.651 17.284H178.187L171.691 35.94C171.264 37.156 170.677 38.02 169.931 38.532C169.184 39.044 168.139 39.3 166.795 39.3H163.179ZM187.57 34.884C184.776 34.884 182.674 34.34 181.266 33.252C179.88 32.164 179.122 30.7773 178.994 29.092L184.562 28.9C184.69 29.668 185 30.244 185.49 30.628C185.981 31.012 186.685 31.204 187.602 31.204C189.16 31.204 189.938 30.7133 189.938 29.732C189.938 29.2413 189.736 28.868 189.33 28.612C188.946 28.3347 188.082 28.0787 186.738 27.844C184.861 27.5453 183.389 27.1827 182.322 26.756C181.256 26.308 180.498 25.7427 180.05 25.06C179.624 24.3773 179.41 23.524 179.41 22.5C179.41 20.8147 180.072 19.46 181.394 18.436C182.738 17.412 184.765 16.9 187.474 16.9C190.013 16.9 191.933 17.4653 193.234 18.596C194.557 19.7053 195.325 21.156 195.538 22.948L190.066 23.14C189.96 22.3293 189.672 21.7 189.202 21.252C188.754 20.804 188.157 20.58 187.41 20.58C186.685 20.58 186.109 20.74 185.682 21.06C185.277 21.3587 185.074 21.7747 185.074 22.308C185.074 22.8627 185.288 23.2787 185.714 23.556C186.141 23.812 186.898 24.0253 187.986 24.196C190.781 24.58 192.744 25.1987 193.874 26.052C195.026 26.884 195.602 28.068 195.602 29.604C195.602 31.3107 194.888 32.6227 193.458 33.54C192.029 34.436 190.066 34.884 187.57 34.884ZM205.03 38.02L214.47 10.5H217.03L207.59 38.02H205.03ZM238.933 35.012C236.778 35.012 234.922 34.5427 233.365 33.604C231.829 32.644 230.645 31.2787 229.813 29.508C228.981 27.7373 228.565 25.6253 228.565 23.172C228.565 20.7187 228.981 18.6067 229.813 16.836C230.645 15.044 231.829 13.668 233.365 12.708C234.922 11.748 236.778 11.268 238.933 11.268C241.109 11.268 242.965 11.748 244.501 12.708C246.058 13.668 247.253 15.044 248.085 16.836C248.917 18.6067 249.333 20.7187 249.333 23.172C249.333 25.6253 248.917 27.7373 248.085 29.508C247.253 31.2787 246.058 32.644 244.501 33.604C242.965 34.5427 241.109 35.012 238.933 35.012ZM238.933 32.324C241.28 32.324 243.114 31.524 244.437 29.924C245.781 28.3027 246.453 26.052 246.453 23.172C246.453 20.292 245.781 18.0413 244.437 16.42C243.114 14.7773 241.28 13.956 238.933 13.956C236.608 13.956 234.773 14.7773 233.429 16.42C232.106 18.0413 231.445 20.292 231.445 23.172C231.445 26.052 232.106 28.3027 233.429 29.924C234.773 31.524 236.608 32.324 238.933 32.324ZM254.693 34.5V19.908H252.389V17.54H254.693V16.004C254.693 14.7453 255.055 13.732 255.781 12.964C256.506 12.1747 257.637 11.78 259.173 11.78H261.861V14.148H259.365C258.703 14.148 258.202 14.3293 257.861 14.692C257.541 15.0547 257.381 15.556 257.381 16.196V17.54H261.637V19.908H257.381V34.5H254.693ZM263.909 34.5V19.908H261.605V17.54H263.909V16.004C263.909 14.7453 264.271 13.732 264.997 12.964C265.722 12.1747 266.853 11.78 268.389 11.78H271.077V14.148H268.581C267.919 14.148 267.418 14.3293 267.077 14.692C266.757 15.0547 266.597 15.556 266.597 16.196V17.54H270.853V19.908H266.597V34.5H263.909ZM277.576 34.5C276.594 34.5 275.794 34.244 275.176 33.732C274.557 33.22 274.248 32.4093 274.248 31.3V11.78H276.936V31.076C276.936 31.78 277.288 32.132 277.992 32.132H279.464V34.5H277.576ZM282.529 34.5V17.54H285.217V34.5H282.529ZM282.465 14.884V11.748H285.281V14.884H282.465ZM290.654 34.5V17.54H293.118L293.182 20.58C293.63 19.4067 294.312 18.5427 295.23 17.988C296.168 17.4333 297.224 17.156 298.398 17.156C299.699 17.156 300.766 17.444 301.598 18.02C302.451 18.596 303.08 19.3747 303.486 20.356C303.912 21.316 304.126 22.3933 304.126 23.588V34.5H301.438V24.356C301.438 22.7773 301.15 21.5827 300.574 20.772C300.019 19.94 299.102 19.524 297.822 19.524C296.52 19.524 295.443 19.94 294.59 20.772C293.758 21.5827 293.342 22.7773 293.342 24.356V34.5H290.654ZM315.497 34.884C313.897 34.884 312.51 34.5213 311.337 33.796C310.185 33.0707 309.289 32.0467 308.649 30.724C308.03 29.38 307.721 27.812 307.721 26.02C307.721 24.228 308.03 22.6707 308.649 21.348C309.289 20.0253 310.174 19.0013 311.305 18.276C312.457 17.5293 313.811 17.156 315.369 17.156C316.841 17.156 318.142 17.508 319.273 18.212C320.403 18.8947 321.278 19.8973 321.897 21.22C322.537 22.5427 322.857 24.1533 322.857 26.052V26.852H310.536C310.643 28.6653 311.123 30.0307 311.977 30.948C312.851 31.8653 314.025 32.324 315.497 32.324C316.606 32.324 317.513 32.068 318.217 31.556C318.942 31.0227 319.443 30.3293 319.721 29.476L322.601 29.7C322.153 31.2147 321.299 32.4627 320.041 33.444C318.803 34.404 317.289 34.884 315.497 34.884ZM310.536 24.484H319.913C319.785 22.8413 319.305 21.636 318.473 20.868C317.662 20.1 316.627 19.716 315.369 19.716C314.067 19.716 312.99 20.1213 312.137 20.932C311.305 21.7213 310.771 22.9053 310.536 24.484ZM335.194 34.5V11.78H339.034L346.298 31.492L353.53 11.78H357.37V34.5H354.618V16.9L348.122 34.5H344.442L337.946 16.9V34.5H335.194ZM367.136 34.884C365.387 34.884 363.989 34.4787 362.944 33.668C361.92 32.8573 361.408 31.7267 361.408 30.276C361.408 28.8253 361.835 27.684 362.688 26.852C363.541 26.02 364.896 25.4333 366.752 25.092L372.768 23.972C372.768 21.1347 371.424 19.716 368.736 19.716C367.563 19.716 366.635 19.9827 365.952 20.516C365.269 21.028 364.8 21.7747 364.544 22.756L361.696 22.532C362.016 20.932 362.784 19.6413 364 18.66C365.237 17.6573 366.816 17.156 368.736 17.156C370.912 17.156 372.576 17.7747 373.728 19.012C374.88 20.228 375.456 21.9133 375.456 24.068V31.076C375.456 31.78 375.755 32.132 376.352 32.132H377.024V34.5C376.768 34.5427 376.427 34.564 376 34.564C374.976 34.564 374.208 34.3613 373.696 33.956C373.205 33.5293 372.907 32.836 372.8 31.876C372.373 32.7507 371.637 33.476 370.592 34.052C369.547 34.6067 368.395 34.884 367.136 34.884ZM367.392 32.516C369.099 32.516 370.421 32.036 371.36 31.076C372.299 30.116 372.768 28.932 372.768 27.524V26.308L367.264 27.332C366.112 27.5453 365.312 27.876 364.864 28.324C364.437 28.7507 364.224 29.316 364.224 30.02C364.224 30.8093 364.501 31.428 365.056 31.876C365.632 32.3027 366.411 32.516 367.392 32.516ZM380.06 34.5V17.54H382.524L382.588 20.58C383.036 19.4067 383.719 18.5427 384.636 17.988C385.575 17.4333 386.631 17.156 387.804 17.156C389.105 17.156 390.172 17.444 391.004 18.02C391.857 18.596 392.487 19.3747 392.892 20.356C393.319 21.316 393.532 22.3933 393.532 23.588V34.5H390.844V24.356C390.844 22.7773 390.556 21.5827 389.98 20.772C389.425 19.94 388.508 19.524 387.228 19.524C385.927 19.524 384.849 19.94 383.996 20.772C383.164 21.5827 382.748 22.7773 382.748 24.356V34.5H380.06ZM403.753 34.884C402.068 34.884 400.713 34.3187 399.689 33.188C398.686 32.036 398.185 30.4573 398.185 28.452V17.54H400.873V27.716C400.873 29.3587 401.161 30.5747 401.737 31.364C402.334 32.132 403.241 32.516 404.457 32.516C405.801 32.516 406.857 32.0893 407.625 31.236C408.393 30.3613 408.777 29.1667 408.777 27.652V17.54H411.465V34.5H408.905V31.748C407.966 33.8387 406.249 34.884 403.753 34.884ZM421.167 34.884C419.418 34.884 418.021 34.4787 416.975 33.668C415.951 32.8573 415.439 31.7267 415.439 30.276C415.439 28.8253 415.866 27.684 416.719 26.852C417.573 26.02 418.927 25.4333 420.783 25.092L426.799 23.972C426.799 21.1347 425.455 19.716 422.767 19.716C421.594 19.716 420.666 19.9827 419.983 20.516C419.301 21.028 418.831 21.7747 418.575 22.756L415.727 22.532C416.047 20.932 416.815 19.6413 418.031 18.66C419.269 17.6573 420.847 17.156 422.767 17.156C424.943 17.156 426.607 17.7747 427.759 19.012C428.911 20.228 429.487 21.9133 429.487 24.068V31.076C429.487 31.78 429.786 32.132 430.383 32.132H431.055V34.5C430.799 34.5427 430.458 34.564 430.031 34.564C429.007 34.564 428.239 34.3613 427.727 33.956C427.237 33.5293 426.938 32.836 426.831 31.876C426.405 32.7507 425.669 33.476 424.623 34.052C423.578 34.6067 422.426 34.884 421.167 34.884ZM421.423 32.516C423.13 32.516 424.453 32.036 425.391 31.076C426.33 30.116 426.799 28.932 426.799 27.524V26.308L421.295 27.332C420.143 27.5453 419.343 27.876 418.895 28.324C418.469 28.7507 418.255 29.316 418.255 30.02C418.255 30.8093 418.533 31.428 419.087 31.876C419.663 32.3027 420.442 32.516 421.423 32.516ZM437.232 34.5C436.25 34.5 435.45 34.244 434.832 33.732C434.213 33.22 433.904 32.4093 433.904 31.3V11.78H436.592V31.076C436.592 31.78 436.944 32.132 437.648 32.132H439.12V34.5H437.232Z" fill="#222222"/>
<defs>
<radialGradient id="paint0_radial_2052_175" cx="0" cy="0" r="1" gradientUnits="userSpaceOnUse" gradientTransform="translate(6.24624 4.83158) rotate(47.4896) scale(49.034)">
<stop stop-color="#3C3C3C"/>
<stop offset="1" stop-color="#191919"/>
</radialGradient>
<linearGradient id="paint1_linear_2052_175" x1="30.1759" y1="24.4833" x2="25.0436" y2="24.256" gradientUnits="userSpaceOnUse">
<stop stop-color="white"/>
<stop offset="1" stop-color="#B8B9BA"/>
</linearGradient>
<radialGradient id="paint2_radial_2052_175" cx="0" cy="0" r="1" gradientUnits="userSpaceOnUse" gradientTransform="translate(23.9524 24.1109) rotate(-141.41) scale(11.6767 35.3928)">
<stop stop-color="white"/>
<stop offset="1" stop-color="#E0E4E8"/>
</radialGradient>
<linearGradient id="paint3_linear_2052_175" x1="21.7717" y1="32.1669" x2="21.784" y2="30.4161" gradientUnits="userSpaceOnUse">
<stop stop-color="white"/>
<stop offset="1" stop-color="#BCBEC1"/>
</linearGradient>
</defs>
</svg>
